# xmcd
#
# Track frame offsets:
# 150
# 14819
# 29645
# 40652
# 55266
# 68681
# 81367
# 94531
# 108563
# 122654
#
# Disc length: 1765 seconds
#
# Revision: 0
# Processed by: cddbd v1.5.1PL2 Copyright (c) Steve Scherf et al.
# Submitted via: Audion 3.0.2 (http://www.panic.com/audion/)
#
DISCID=8306e30a
DTITLE=Billie Holiday - Body and Soul
DYEAR=1900
DGENRE=
TTITLE0=Fine And Mellow
TTITLE1=These Foolish Things
TTITLE2=Romance In The Dark
TTITLE3=I Cried For You
TTITLE4=Body and Soul
TTITLE5=You're So Desirable
TTITLE6=My Man
TTITLE7=I Wished On The Moon
TTITLE8=Mean To Me
TTITLE9=Gee Baby, Ain't I Good To You (Live)
EXTD=
EXTT0=
EXTT1=
EXTT2=
EXTT3=
EXTT4=
EXTT5=
EXTT6=
EXTT7=
EXTT8=
EXTT9=
PLAYORDER=
